# xmcd
#
# Track frame offsets: 
#        150
#        107349
#        206862
#        232863
#        299875
#        306436
#
# Disc length: 4222 seconds
#
# Revision: 0
# Processed by: cddbd v1.5.2PL0 Copyright (c) Steve Scherf et al.
# Submitted via: ExactAudioCopy v0.95b3
#
DISCID=57107c06
DTITLE=Jimi Hendrix  - In the Studio Reclamation 1967-1970 - Disc 07  
DTITLE=FLAC
DYEAR=1900
DGENRE=
TTITLE0=Jam including Stepping Stone, Sending My Love To Linda, Freedo
TTITLE0=m, Here Comes The Sun, Cherokee Mist, All Devils Children
TTITLE1=Closer To The Truth (Room Full Of Mirrors recital)
TTITLE2=Jam Back At The House
TTITLE3=Midnight, Valleys Of Neptune Arising
TTITLE4=Pride Of Man (Bolero)
TTITLE5=Pride Of Man (Bolero)
EXTD=
EXTT0=
EXTT1=
EXTT2=
EXTT3=
EXTT4=
EXTT5=
PLAYORDER=
